# xmcd CD database file
#
# Track frame offsets:
#	150
#	27197
#	42837
#	56932
#	71037
#	81085
#	99535
#	114272
#	130895
#	143637
#	161584
#	177495
#	195462
#	212700
#	229712
#	246037
#	265417
#	279387
#
# Disc length: 3903 seconds
#
# Revision: 3
# Processed by: cddbd v1.5.1PL0 Copyright (c) Steve Scherf et al.
# Submitted via: CDex 1.51
#
DISCID=010f3d12
DTITLE=Banana - Conociéndote
DYEAR=1996
DGENRE=Pop
TTITLE0=Aún es tiempo de soñar
TTITLE1=Te espero como siempre
TTITLE2=Toda una noche contigo
TTITLE3=Bésame, bésame o me enojo
TTITLE4=¿Quién se acordará?
TTITLE5=Ella está con lágrimas en los ojos
TTITLE6=Te creo, te quiero
TTITLE7=Si alguna vez piensas en mí
TTITLE8=Una bicicleta para dos
TTITLE9=Conociéndote
TTITLE10=Hasta que me digás que sos mía
TTITLE11=Igual cantaré mi canción
TTITLE12=Nuestro amor comenzó a vivir
TTITLE13=¿Dónde quedó el amor?
TTITLE14=Nadie podrá hacerme olvidar
TTITLE15=Hoy, recuerdo que eres mía
TTITLE16=Con la lluvia volverá el amor
TTITLE17=¿Por qué te vas, por qué me dejas?
EXTD=YEAR: 1996
EXTT0=
EXTT1=
EXTT2=
EXTT3=
EXTT4=
EXTT5=
EXTT6=
EXTT7=
EXTT8=
EXTT9=
EXTT10=
EXTT11=
EXTT12=
EXTT13=
EXTT14=
EXTT15=
EXTT16=
EXTT17=
PLAYORDER=
